<svg xmlns="http://www.w3.org/2000/svg" width="512" height="512" viewBox="0 0 512 512" version="1.1">
	<path d="M 232.500 10.026 C 198.717 13.861, 157.298 29.070, 125.180 49.434 C 92.771 69.982, 62.972 100.070, 44.147 131.251 C 31.171 152.746, 19.057 183.193, 13.559 208.131 C 5.836 243.167, 6.364 278.946, 15.137 314.943 C 33.768 391.387, 87.846 454.181, 161 484.313 C 217.744 507.687, 278.833 509.477, 337.078 489.473 C 350.642 484.814, 380.927 469.922, 393 461.974 C 407.138 452.666, 413.265 447.716, 426.374 435.009 C 458.691 403.684, 481.428 365.329, 493.959 321 C 508.965 267.920, 504.397 213.403, 480.303 158 C 467.716 129.056, 450.526 104.453, 426.854 81.500 C 389.840 45.611, 340.185 20.282, 290.500 11.947 C 276.673 9.628, 245.194 8.585, 232.500 10.026 M 229.500 24.518 C 203.465 28.663, 171.220 39.268, 150 50.666 C 93.662 80.928, 54.865 126.785, 34.657 187 C 25.983 212.846, 22.990 231.105, 23.020 257.974 C 23.040 276.609, 24.556 291.214, 27.967 305.636 C 44.997 377.643, 87.552 432.381, 151 463.890 C 175.446 476.031, 199.530 483.744, 225.036 487.602 C 240.832 489.992, 269.595 490.010, 285 487.640 C 378.655 473.235, 446.543 416.516, 476.075 328 C 490.190 285.694, 491.401 247.088, 480.013 202.435 C 475.196 183.545, 470.630 171.101, 462.366 154.333 C 433.806 96.389, 384.965 55.111, 319.261 33.388 C 296.579 25.889, 283.901 23.771, 259.500 23.402 C 244.725 23.179, 235.832 23.510, 229.500 24.518 M 150.500 60.848 C 135.343 73.442, 130.885 80.791, 130.197 94.316 C 129.808 101.963, 130.113 104.250, 132.493 111.566 C 134.180 116.752, 135.768 120, 136.618 120 C 137.378 120, 138 119.303, 138 118.450 C 138 115.277, 141.461 110.273, 149.119 102.373 C 159.961 91.190, 162.547 85.550, 162.360 73.500 C 162.222 64.598, 160.371 55.942, 158.478 55.342 C 157.940 55.172, 154.350 57.650, 150.500 60.848 M 352.119 56.778 C 350.333 60.115, 348.736 72.122, 349.241 78.414 C 349.923 86.910, 352.804 91.991, 362.900 102.500 C 369.008 108.857, 371.965 112.782, 372.971 115.865 L 374.396 120.229 376.189 118.015 C 378.439 115.236, 380.709 107.696, 381.560 100.170 C 382.334 93.332, 380.197 83.719, 376.503 77.415 C 373.835 72.863, 363.859 62.759, 357.308 57.974 C 353.361 55.091, 353.059 55.022, 352.119 56.778 M 172.695 101.354 C 172.388 102.152, 168.557 105.531, 164.182 108.861 C 148.813 120.561, 144.616 128.107, 144.637 144 C 144.650 153.310, 146.430 161.459, 148.459 161.487 C 148.986 161.494, 150.216 156.636, 151.192 150.692 C 153.134 138.869, 155.979 130.825, 160.968 123.050 C 164.524 117.509, 165.418 117.044, 166.965 119.934 C 169.119 123.960, 168.086 130.824, 163.596 142.307 C 158.144 156.253, 157.146 159.920, 155.956 170.394 C 154.783 180.719, 155.953 190.712, 160.012 205.043 C 164.884 222.241, 172.191 239.108, 181.021 253.534 C 183.209 257.110, 185 260.428, 185 260.909 C 185 261.389, 180.550 260.056, 175.110 257.947 C 154.009 249.764, 144.774 249.110, 132.365 254.917 C 125.587 258.088, 122 260.576, 122 262.104 C 122 263.841, 128.843 269.232, 134.815 272.200 C 143.510 276.521, 153.855 277.190, 162.500 273.990 C 165.800 272.769, 169.788 271.759, 171.361 271.747 C 175.495 271.714, 191.126 279.956, 201 287.375 C 210.078 294.196, 222.922 307.001, 229.710 316 C 231.992 319.025, 236.528 326.225, 239.790 332 C 246.872 344.538, 250.227 347.426, 256.864 346.698 C 263.338 345.989, 265.967 343.406, 271.552 332.271 C 277.936 319.542, 282.382 313.805, 296.342 300.282 C 311.271 285.819, 332.776 271.674, 339.730 271.742 C 341.254 271.757, 345.200 272.769, 348.500 273.990 C 353.399 275.802, 355.968 276.130, 362.500 275.775 C 371.873 275.267, 377.881 272.649, 385.495 265.755 L 390.345 261.365 386.922 258.845 C 379.491 253.374, 373.286 251.514, 362.500 251.524 C 352.755 251.532, 352.170 251.666, 339.556 256.785 C 332.437 259.674, 326.248 261.916, 325.804 261.768 C 325.360 261.620, 326.611 259.249, 328.586 256.499 C 334.846 247.780, 341.819 232.583, 347.966 214.262 C 358.631 182.479, 358.697 171.337, 348.378 144.556 C 343.385 131.595, 342.177 122.902, 344.912 119.606 C 346.199 118.055, 346.464 118.088, 348.557 120.054 C 354.228 125.381, 362 146.545, 362 156.660 C 362 159.047, 362.473 161, 363.051 161 C 365.410 161, 367.354 153.514, 367.335 144.500 C 367.305 130.079, 362.401 120.041, 351.322 111.727 C 348.224 109.402, 343.796 105.813, 341.483 103.750 C 339.169 101.687, 337.045 100, 336.761 100 C 335.915 100, 332.134 109.399, 330.461 115.661 C 327.693 126.022, 328.356 135.794, 332.790 150 C 336.343 161.381, 338.021 168.826, 339.384 179.250 C 339.654 181.313, 339.714 183, 339.517 183 C 339.321 183, 338.435 180.815, 337.548 178.145 C 335.896 173.170, 330.243 163.424, 329.463 164.204 C 329.224 164.443, 330.709 168.657, 332.764 173.569 L 336.500 182.500 336.482 197.500 C 336.467 210.771, 336.146 213.653, 333.700 222.500 C 332.180 228, 329.075 236.216, 326.800 240.758 C 322.714 248.916, 314.675 259.968, 312.251 260.759 C 310.103 261.459, 309.705 258.141, 311.486 254.388 C 312.993 251.212, 313.031 250.367, 311.807 247.146 C 309.450 240.942, 301.774 239.278, 297.467 244.036 C 295.034 246.724, 295.241 253.036, 297.903 257.342 C 300.989 262.337, 301.693 269.897, 299.585 275.416 C 297.593 280.632, 289.843 288.667, 278.630 297.140 C 258.905 312.047, 253.442 311.974, 232.888 296.529 C 211.530 280.479, 207.325 271.248, 214.707 256.614 C 216.523 253.014, 217.008 250.854, 216.549 248.407 C 215.375 242.150, 207.456 238.891, 202.262 242.529 C 199.208 244.668, 198.376 250.183, 200.349 255.208 C 203.466 263.143, 199.702 262.261, 193.093 253.507 C 180.823 237.255, 173.979 217.635, 173.733 198 C 173.604 187.708, 175.254 180.379, 179.655 171.693 C 181.019 169.003, 181.919 166.586, 181.655 166.322 C 181.010 165.677, 176.534 173.588, 174.907 178.250 C 173.640 181.881, 171.992 183.301, 172.008 180.750 C 172.034 176.375, 174.642 165.144, 178.607 152.331 C 184.711 132.604, 184.946 125.132, 179.920 110.512 C 176.602 100.859, 174.101 97.689, 172.695 101.354 M 107.648 114.250 C 104.639 139.298, 111.230 154.307, 131.981 169.665 C 142.041 177.111, 145.317 178.541, 147.443 176.414 C 149.264 174.593, 148.660 172.888, 143.933 166.500 C 138.441 159.079, 137.161 156.031, 134.517 144.076 C 131.704 131.361, 130.247 127.566, 125.786 121.343 C 122.254 116.416, 112.755 109, 109.976 109 C 108.675 109, 108.131 110.226, 107.648 114.250 M 394.303 113.356 C 388.582 117.568, 382.651 125.182, 380.171 131.500 C 379.524 133.150, 378.072 138.775, 376.944 144 C 374.511 155.277, 371.639 161.915, 366.602 167.906 C 362.222 173.116, 361.844 177.679, 365.828 177.248 C 369.788 176.819, 382.130 168.100, 390.080 160.114 C 401.983 148.158, 405.867 137.486, 404.501 120.500 C 403.411 106.960, 403.196 106.809, 394.303 113.356 M 68.734 148.029 C 63.293 149.396, 57 152.818, 57 154.410 C 57 156.567, 65.254 167.208, 69.336 170.314 C 76.807 175.998, 81.293 177.273, 91.894 176.721 C 103.019 176.143, 109 174.610, 109 172.337 C 109 168.140, 95.343 153.746, 87.625 149.808 C 83.059 147.479, 74.234 146.648, 68.734 148.029 M 427.324 148.380 C 425.027 149.131, 421.652 150.675, 419.824 151.812 C 413.195 155.934, 403 168.228, 403 172.101 C 403 174.750, 409.738 176.427, 420.500 176.457 C 428.329 176.478, 430.155 176.137, 434.534 173.833 C 442.481 169.653, 453 158.151, 453 153.643 C 453 151.590, 443.952 148.050, 437.288 147.496 C 433.792 147.205, 429.846 147.555, 427.324 148.380 M 192.121 153.750 C 193.285 162.254, 191.799 170.060, 185.531 188.367 C 179.901 204.808, 177.909 215.517, 179.386 221.400 L 180.043 224.019 183.824 222.090 C 190.971 218.444, 197.732 211.321, 201.734 203.222 C 205.391 195.821, 205.498 195.295, 205.433 185.050 C 205.376 176.280, 204.906 173.169, 202.642 166.609 C 200.094 159.224, 193.718 148, 192.070 148 C 191.666 148, 191.689 150.588, 192.121 153.750 M 316.617 151.257 C 306.781 164.154, 303.263 187.252, 308.890 202 C 311.394 208.564, 317.238 215.644, 323.665 219.902 C 331.040 224.787, 331.361 224.508, 330.730 213.750 C 330.305 206.498, 329.043 200.720, 324.886 187 C 319.891 170.513, 319.585 168.878, 319.594 158.750 C 319.599 152.838, 319.490 148, 319.352 148 C 319.214 148, 317.984 149.466, 316.617 151.257 M 113.598 165.736 C 111.559 167.775, 114.839 184.161, 118.970 192.576 C 123.011 200.805, 131.811 209.059, 141.396 213.611 C 150.157 217.772, 158.177 218.737, 158.797 215.706 C 159.267 213.405, 155.323 205.891, 147.673 194.513 C 139.598 182.504, 134.290 177.012, 125.133 171.189 C 116.838 165.915, 114.516 164.817, 113.598 165.736 M 387.994 169.915 C 384.415 172.062, 379.317 175.730, 376.664 178.065 C 370.110 183.834, 352 211.139, 352 215.252 L 352 218.279 357.250 217.662 C 369.189 216.259, 387.161 203.448, 392.857 192.281 C 395.577 186.949, 397.966 176.917, 397.985 170.750 C 398.004 164.734, 396.796 164.633, 387.994 169.915 M 70.500 191.956 C 62.609 194.538, 53.883 201.648, 47.250 210.898 C 44.362 214.925, 42 218.733, 42.001 219.360 C 42.001 220.659, 57.584 224, 63.642 224 C 69.961 224, 77.080 221.351, 82.500 216.983 C 85.250 214.766, 90.734 210.492, 94.686 207.484 C 98.638 204.477, 102.170 201.534, 102.534 200.945 C 103.601 199.218, 100.333 196.422, 93.839 193.508 C 85.827 189.912, 78.277 189.410, 70.500 191.956 M 418.555 193.440 C 415.286 194.813, 411.515 197.030, 410.177 198.369 L 407.743 200.802 414.085 205.651 C 417.573 208.318, 422.243 212.138, 424.463 214.140 C 432.927 221.773, 442.069 224.547, 453.444 222.937 C 461.771 221.757, 468.877 220.008, 469.512 218.980 C 470.274 217.748, 461.854 206.941, 456.124 201.795 C 448.218 194.696, 441.068 191.563, 432 191.225 C 425.844 190.996, 423.435 191.393, 418.555 193.440 M 223.500 211.403 C 218.848 213.456, 216.545 216.646, 216.545 221.037 C 216.545 226.056, 219.558 230.103, 224.630 231.897 C 228.123 233.132, 228.985 233.101, 232.084 231.631 C 241.424 227.198, 241.005 215.407, 231.364 211.379 C 227.406 209.725, 227.299 209.725, 223.500 211.403 M 101.187 212.803 C 98.815 213.714, 95.479 215.624, 93.774 217.048 C 90.676 219.634, 90.674 219.640, 92.439 222.568 C 95.060 226.917, 102.759 232.748, 109 235.110 C 113.492 236.810, 116.058 237.109, 123 236.742 C 131.998 236.265, 143 232.890, 143 230.607 C 143 228.366, 125.859 215.091, 120.260 212.996 C 113.887 210.611, 107.075 210.543, 101.187 212.803 M 276.879 213.816 C 274.317 216.106, 273.727 217.397, 273.727 220.721 C 273.727 225.907, 276.875 230.474, 281.501 232 C 285.589 233.349, 287.947 232.757, 291.971 229.371 C 297.288 224.897, 296.710 216.712, 290.783 212.561 C 287.065 209.956, 280.540 210.546, 276.879 213.816 M 392.396 212.418 C 384.962 214.745, 368.237 228.211, 369.199 231.096 C 370.077 233.730, 380.169 236.303, 390 236.399 C 397.956 236.477, 400.345 236.111, 404.702 234.144 C 409.615 231.925, 420 222.399, 420 220.111 C 420 218.431, 413.799 214.306, 408.715 212.603 C 403.063 210.709, 398.038 210.653, 392.396 212.418 M 149.655 233.829 C 145.681 238.220, 149.052 246, 154.927 246 C 158.271 246, 162 242.074, 162 238.554 C 162 233.028, 153.369 229.725, 149.655 233.829 M 351.705 233.250 C 348.879 235.356, 348.539 240.144, 350.994 243.266 C 355.203 248.617, 363.333 245.806, 363.333 239 C 363.333 237.364, 362.514 235.120, 361.512 234.013 C 359.440 231.724, 354.291 231.323, 351.705 233.250 M 90.111 278.560 C 84.212 283.524, 85.481 293.102, 92.478 296.423 C 96.838 298.492, 99.817 298.409, 103.580 296.115 C 113.104 290.306, 108.780 276, 97.500 276 C 94.295 276, 92.354 276.673, 90.111 278.560 M 407.367 277.772 C 401.050 282.889, 401.900 292.828, 408.967 296.483 C 412.664 298.395, 415.324 298.401, 418.989 296.506 C 426.980 292.374, 427.169 281.133, 419.316 277.117 C 416.075 275.459, 409.797 275.804, 407.367 277.772 M 201.605 307.250 C 192.557 323.443, 189.776 334.044, 191.916 344.188 C 193.449 351.454, 196.028 355.216, 203.762 361.467 C 209.685 366.255, 216.109 374, 214.157 374 C 213.654 374, 210.825 372.896, 207.871 371.547 C 198.159 367.112, 191.370 365.827, 176 365.516 C 162.009 365.233, 161.189 365.097, 152.641 361.646 C 140.267 356.649, 135.429 353.257, 126.057 343.003 C 117.019 333.114, 110.188 328.935, 99.634 326.841 C 91.898 325.306, 80.924 326.975, 72.633 330.949 C 66.449 333.912, 55.566 342.067, 53.636 345.185 C 52.022 347.791, 54.355 351.208, 65.500 362.562 C 73.778 370.995, 76.869 373.416, 83.448 376.624 L 91.396 380.500 105.698 380.500 C 113.564 380.500, 120 380.663, 120 380.861 C 120 381.060, 118.196 383.377, 115.992 386.010 C 111.851 390.956, 99 411.303, 99 412.914 C 99 413.415, 100.913 414.135, 103.250 414.515 C 105.588 414.895, 111.100 416.056, 115.500 417.096 C 136.042 421.949, 153.129 418.017, 165.570 405.572 C 171.636 399.504, 179 386.982, 179 382.735 C 179 379.440, 172.722 381.173, 166.439 386.203 C 146.778 401.941, 141.252 405, 132.482 405 C 128.647 405, 127.957 404.677, 127.446 402.642 C 126.111 397.323, 133.026 387.540, 140.965 383.518 C 146.855 380.533, 148.484 380.267, 171.620 378.511 C 190.779 377.057, 202.353 377.492, 210.993 379.990 C 215.472 381.285, 220.705 381.286, 221.504 379.993 C 221.846 379.439, 221.257 377.752, 220.194 376.243 C 213.367 366.554, 212.628 360.838, 216.604 348.500 C 219.689 338.926, 219.386 331.961, 215.404 320.922 C 211.614 310.416, 207.212 301, 206.091 301 C 205.545 301, 203.526 303.813, 201.605 307.250 M 300.060 309.159 C 290.938 328.693, 290.009 336.692, 295.075 352.065 C 297.887 360.599, 298.045 361.766, 296.931 365.745 C 296.261 368.138, 294.386 371.928, 292.763 374.168 C 290.091 377.858, 289.960 378.388, 291.372 379.801 C 292.785 381.213, 293.853 381.200, 302.716 379.664 C 308.097 378.731, 317.225 377.985, 323 378.006 C 337.938 378.059, 363.948 380.533, 368.186 382.304 C 375.745 385.463, 382.748 393.832, 384.458 401.751 C 385.446 406.329, 383.365 406.800, 374.112 404.093 C 364.899 401.397, 361.176 399.278, 349.501 390.080 C 333.632 377.578, 329.358 378.013, 335.816 391.472 C 341.210 402.714, 347.970 409.887, 357.702 414.697 C 364.428 418.021, 365.923 418.362, 375.277 418.705 C 383.580 419.010, 388.067 418.556, 399.165 416.290 C 406.681 414.756, 412.981 413.231, 413.165 412.903 C 413.679 411.987, 400.187 391.337, 395.668 386.122 L 391.662 381.500 404.081 380.867 C 421.381 379.985, 430.172 376.664, 442.147 366.487 C 448.240 361.309, 458.967 349.095, 458.987 347.313 C 459.011 345.133, 445.592 334.711, 438.303 331.248 C 418.409 321.796, 400.234 325.928, 384.700 343.436 C 377.482 351.571, 372.490 355.033, 359.626 360.828 L 349.500 365.389 335 365.548 C 320.818 365.703, 320.243 365.796, 308.768 369.777 L 297.037 373.848 299.039 369.924 C 300.140 367.765, 302.719 364.923, 304.771 363.609 C 316.810 355.892, 321.672 343.812, 318.616 329.208 C 317.030 321.627, 307.648 302.023, 305.228 301.234 C 304.439 300.976, 302.474 303.991, 300.060 309.159 M 145.311 310.750 C 144.865 313.363, 144.508 320.225, 144.519 326 C 144.535 335.203, 144.861 337.194, 147.154 342.120 C 148.593 345.211, 151.488 349.641, 153.588 351.966 C 159.667 358.694, 170.593 364.086, 172.359 361.228 C 172.622 360.803, 171.073 357.833, 168.918 354.627 C 166.763 351.421, 165 348.328, 165 347.754 C 165 347.180, 167.448 349.025, 170.440 351.855 C 173.432 354.685, 176.807 357, 177.940 357 C 179.802 357, 179.999 356.398, 179.988 350.750 C 179.967 339.428, 176.209 329.547, 169.162 322.286 C 165.761 318.782, 148.054 306, 146.600 306 C 146.337 306, 145.757 308.137, 145.311 310.750 M 354.565 312.209 C 349.650 315.561, 343.714 320.276, 341.372 322.685 C 334.487 329.769, 330 341.553, 330 352.549 C 330 358.599, 331.903 358.402, 338.652 351.652 C 344.935 345.370, 345.693 346.805, 340.579 355.299 C 338.607 358.573, 337.576 361.238, 338.144 361.589 C 339.688 362.543, 346.181 361.028, 349.629 358.909 C 354.219 356.088, 360.477 348.936, 363.687 342.840 C 366.353 337.780, 366.500 336.819, 366.500 324.500 C 366.500 311.950, 365.760 305.938, 364.231 306.057 C 363.829 306.088, 359.479 308.856, 354.565 312.209 M 250.571 322.571 C 247.175 325.968, 249.688 332, 254.500 332 C 257.274 332, 260 329.580, 260 327.117 C 260 324.744, 256.347 321, 254.032 321 C 252.993 321, 251.436 321.707, 250.571 322.571 M 226.655 337.829 C 223.957 340.810, 224.711 346.308, 229.950 361.851 C 232.672 369.927, 235.320 379.221, 235.835 382.503 C 236.764 388.428, 235.997 393, 234.073 393 C 233.536 393, 229.436 391.390, 224.962 389.423 C 215.816 385.402, 206.687 383.360, 202.528 384.404 C 200.997 384.788, 198.451 386.395, 196.872 387.974 C 194.592 390.254, 194.001 391.739, 194.004 395.173 C 194.014 406.494, 204.441 411.945, 213.994 405.623 C 217.835 403.081, 218.146 403.034, 221.607 404.480 C 228.139 407.209, 234.736 412.824, 237.065 417.635 C 239.007 421.646, 239.202 423.209, 238.651 430.354 C 238.306 434.834, 237.339 441.200, 236.502 444.500 C 234.449 452.595, 227.933 465.628, 223.565 470.376 C 221.604 472.507, 220 474.406, 220 474.594 C 220 475.211, 236.406 473.823, 240.140 472.891 C 247.623 471.023, 249.925 459.904, 250.988 420.500 C 251.878 387.486, 251.200 376.906, 247.425 364.940 C 243.792 353.422, 237.385 338.770, 235.318 337.250 C 232.847 335.433, 228.564 335.719, 226.655 337.829 M 275.287 338.250 C 272.251 341.564, 269.611 347.282, 265.647 359.130 C 260.140 375.589, 259.615 380.366, 260.386 407 C 261.343 440.066, 263.813 458.482, 268.663 468.702 C 270.744 473.087, 272.317 473.650, 285.029 474.551 L 295.416 475.287 290.254 469.496 C 280.151 458.161, 274.001 442.058, 273.896 426.667 C 273.849 419.800, 274.165 418.370, 276.458 415.060 C 279.210 411.089, 286.004 405.709, 290.358 404.054 C 292.468 403.252, 293.975 403.620, 298.647 406.077 C 303.009 408.372, 305.081 408.924, 307.428 408.416 C 314.635 406.857, 318.685 401.142, 317.714 393.904 C 317.059 389.018, 314.941 386.466, 310.261 384.921 C 305.249 383.267, 299.787 384.181, 289.305 388.428 C 284.247 390.477, 279.072 392.006, 277.805 391.827 C 275.670 391.524, 275.512 391.058, 275.658 385.500 C 275.804 379.914, 278.561 370.230, 284.908 353 C 287.509 345.940, 287.515 341.924, 284.927 338.635 C 282.318 335.318, 278.127 335.150, 275.287 338.250 M 79.208 345.676 C 78.216 346.074, 78.187 346.520, 79.081 347.597 C 79.942 348.635, 83.141 349.026, 91.372 349.100 C 103.640 349.210, 102.692 350.729, 90.250 350.900 C 84.517 350.979, 83 351.314, 83 352.500 C 83 354.203, 87.512 354.376, 99.818 353.143 C 110.868 352.036, 109.357 353.504, 97.951 354.957 C 83.040 356.857, 83.984 358.435, 99.595 357.709 C 112.764 357.096, 113.132 358.203, 100.207 359.548 C 92.688 360.331, 91.174 360.871, 93.123 362.076 C 93.858 362.530, 99.644 362.713, 105.980 362.482 L 117.500 362.062 109.315 363.426 C 98.639 365.205, 97.901 365.524, 101.315 366.881 C 106.542 368.959, 131.740 367.660, 134.216 365.184 C 135.287 364.113, 109.282 349.499, 101.500 346.800 C 96.735 345.147, 82.336 344.421, 79.208 345.676 M 406 347.433 C 399.038 350.405, 374.685 364.445, 374.255 365.734 C 373.680 367.459, 396.246 368.681, 404.250 367.358 C 409.310 366.522, 409.005 365.024, 403.750 364.900 C 394.041 364.673, 394.793 363.196, 404.668 363.100 C 414.709 363.001, 418 362.494, 418 361.043 C 418 360.635, 413.401 359.999, 407.781 359.631 C 402.160 359.263, 397.097 358.488, 396.531 357.909 C 395.810 357.172, 399.780 357.070, 409.750 357.568 C 419.297 358.046, 424 357.942, 424 357.254 C 424 356.306, 420.995 355.599, 406 353.014 C 400.995 352.152, 401.265 352.109, 409 352.535 C 413.675 352.793, 419.863 353.291, 422.750 353.641 C 426.052 354.042, 428 353.902, 428 353.264 C 428 351.931, 423.208 351.020, 415.625 350.914 C 410.269 350.839, 409.877 350.710, 412.500 349.885 C 414.159 349.363, 419.696 349.236, 424.889 349.600 C 432.200 350.113, 434.110 349.986, 433.517 349.027 C 430.727 344.513, 414.977 343.600, 406 347.433 M 348.288 383.371 C 349.189 386.089, 371 394.334, 371 391.956 C 371 390.739, 365.934 387.356, 361.442 385.574 C 355.649 383.275, 347.822 381.964, 348.288 383.371 M 153.500 384.402 C 145.418 386.965, 136.079 393, 140.196 393 C 144.686 393, 161 386.427, 162.488 384.019 C 163.350 382.625, 158.446 382.834, 153.500 384.402" stroke="none" fill="black" fill-rule="evenodd"/>
</svg>