<svg xmlns="http://www.w3.org/2000/svg" width="512" height="512" viewBox="0 0 512 512" version="1.1">
	<path d="M 217.750 37.182 C 215.318 37.841, 214.010 38.779, 214.029 39.849 C 214.045 40.757, 218.537 51.850, 224.012 64.500 L 233.966 87.500 217.233 88.089 C 198.952 88.732, 189.110 90.514, 173.500 96.007 C 119.875 114.878, 85.641 153.161, 75.021 206.133 C 73.910 211.679, 73 217.708, 73 219.531 C 73 224.027, 76.486 227.926, 86.114 234.197 C 90.452 237.022, 94 239.749, 94 240.257 C 94 240.765, 92.030 243.503, 89.623 246.341 C 84.079 252.875, 79.147 260.773, 75.656 268.710 C 72.286 276.369, 68.755 290.021, 69.182 293.736 L 69.500 296.500 87.167 296.500 C 96.883 296.500, 105.065 296.732, 105.348 297.015 C 105.632 297.298, 105.135 300.146, 104.246 303.342 C 102.730 308.788, 102.308 309.316, 97.564 311.708 C 94.779 313.112, 90.852 315.559, 88.837 317.145 C 81.381 323.017, 74.100 337.134, 72.520 348.785 C 71.928 353.150, 70.949 355.064, 66.893 359.785 C 61.783 365.733, 58 372.370, 58 375.387 C 58 376.982, 59.166 377.121, 70.722 376.904 L 83.445 376.665 84.231 380.448 C 84.663 382.529, 86.138 385.564, 87.508 387.192 C 89.784 389.896, 90.002 390.993, 90.022 399.827 C 90.049 411.815, 91.479 415.319, 99.701 423.541 C 128.632 452.472, 189.696 471.033, 255.804 470.990 C 319.800 470.948, 375.219 453.521, 404.511 424.229 C 412.977 415.764, 414.374 412.636, 414.830 401.127 C 415.179 392.323, 415.403 391.490, 418.513 387.415 C 420.334 385.029, 422.124 381.710, 422.492 380.039 L 423.159 377 436.147 377 L 449.135 377 448.441 374.750 C 447.148 370.559, 445.204 367.516, 440.105 361.704 C 433.864 354.589, 433.732 354.338, 431.105 344.701 C 427.014 329.691, 419.658 318.839, 408.893 311.931 C 405.673 309.865, 403.780 307.872, 403.394 306.140 C 403.071 304.688, 402.452 302.095, 402.019 300.379 L 401.232 297.258 413.457 296.561 C 420.181 296.178, 428.504 296.184, 431.953 296.574 L 438.224 297.284 437.499 292.997 C 436.688 288.192, 432.327 275.030, 429.094 267.627 C 426.910 262.626, 418.179 249.056, 413.395 243.228 C 411.919 241.429, 410.888 239.825, 411.105 239.663 C 411.322 239.502, 415.325 236.853, 420 233.776 C 428.933 227.897, 432 224.168, 432 219.187 C 432 214.300, 425.538 190.102, 421.516 179.927 C 406.213 141.213, 376.213 111.630, 336.500 96.091 C 322.366 90.561, 309.140 87.897, 293 87.329 C 280.003 86.871, 274 85.771, 274 83.848 C 274 82.659, 292.791 73.483, 299.660 71.318 C 302.597 70.392, 305 69.194, 305 68.655 C 305 67.107, 300.009 59, 299.056 59 C 295.479 59, 265.752 72.672, 250.227 81.457 L 243.953 85.007 242.888 82.253 C 242.302 80.739, 239.440 72.750, 236.528 64.500 C 226.904 37.231, 226.585 36.519, 223.906 36.332 C 222.583 36.240, 219.813 36.622, 217.750 37.182 M 198.500 102.153 C 178.859 105.804, 156.257 116.124, 138 129.777 C 111.539 149.567, 91 183.285, 91 206.937 C 91 217.667, 94.098 223.714, 102.562 229.507 C 123.090 243.554, 171.729 255.051, 227.187 258.964 C 273.108 262.204, 333.611 255.719, 370.211 243.634 C 402.736 232.895, 412.672 224.988, 413.730 209 C 414.758 193.456, 402.365 166.230, 384.597 144.999 C 368.676 125.975, 337.811 107.481, 313.792 102.575 C 299.324 99.619, 273.738 101.368, 263.191 106.034 C 257.641 108.489, 254.768 108.501, 247.787 106.099 C 234.780 101.624, 211.413 99.753, 198.500 102.153 M 195.329 110.419 C 189.436 113.055, 188.277 118.975, 192.805 123.313 C 198.529 128.797, 209 125.674, 209 118.483 C 209 111.668, 201.900 107.480, 195.329 110.419 M 303.913 111.282 C 301.920 112.812, 300 116.359, 300 118.511 C 300 119.415, 301.315 121.469, 302.923 123.077 C 308.450 128.604, 319 125.830, 319 118.850 C 319 114.338, 314.232 109.991, 309.327 110.032 C 307.222 110.049, 304.786 110.612, 303.913 111.282 M 154.077 135.589 C 151.734 137.560, 151 139.002, 151 141.634 C 151 151.242, 164.191 153.195, 167.941 144.143 C 168.947 141.713, 168.883 140.674, 167.568 138.132 C 164.616 132.422, 159.080 131.379, 154.077 135.589 M 343.409 133.972 C 340.851 135.007, 338.586 140.120, 339.463 142.882 C 340.474 146.069, 345.809 150, 349.122 150 C 352.570 150, 357 146.116, 357 143.093 C 357 136.085, 349.925 131.337, 343.409 133.972 M 97.152 252.524 C 91.477 258.733, 86.195 267.572, 82.453 277.119 C 79.591 284.424, 79.409 286.559, 81.582 287.393 C 82.452 287.727, 93.033 288, 105.096 288 L 127.029 288 124.571 284.250 C 116.957 272.636, 110.290 260.656, 108.017 254.507 C 106.502 250.407, 104.781 247.389, 103.859 247.211 C 102.973 247.041, 100.039 249.365, 97.152 252.524 M 399.510 251.750 C 397.469 257.253, 389.659 270.760, 383.363 279.679 C 380.963 283.078, 379 286.340, 379 286.929 C 379 287.660, 386.464 288, 402.500 288 C 415.425 288, 426 287.785, 426 287.523 C 426 285.836, 420.241 272.272, 416.862 266 C 411.662 256.349, 404.322 247, 401.945 247 C 401.575 247, 400.479 249.137, 399.510 251.750 M 120.606 258.250 C 124.627 266.249, 139.050 287.642, 145.719 295.500 C 151.048 301.779, 152.012 302.485, 155.080 302.358 C 157.030 302.277, 167.954 297.922, 180.500 292.222 C 192.600 286.725, 207.781 280.263, 214.235 277.864 C 220.689 275.464, 225.977 273.163, 225.985 272.750 C 225.993 272.337, 223.863 271.998, 221.250 271.995 C 212.322 271.986, 182.516 269.004, 171 266.968 C 158.477 264.754, 142.811 260.754, 128.127 256.021 C 122.973 254.359, 118.577 253, 118.361 253 C 118.144 253, 119.154 255.363, 120.606 258.250 M 371.008 258.058 C 347.621 265.454, 327.647 269.026, 296.500 271.385 C 285.942 272.184, 280.258 272.971, 281.500 273.461 C 289.649 276.675, 311.794 286.340, 327.599 293.581 C 353.042 305.239, 351.047 304.856, 356.226 299.084 C 364.307 290.079, 386 257.934, 386 254.965 C 386 253.486, 384.465 253.802, 371.008 258.058 M 231.500 287.136 C 224.324 288.138, 197 296.794, 197 298.066 C 197 298.557, 198.882 299.919, 201.182 301.093 C 207.207 304.167, 232.100 320.144, 241.669 327.079 C 246.162 330.336, 250.756 333, 251.878 333 C 253 333, 260.349 328.675, 268.209 323.388 C 276.069 318.101, 287.777 310.651, 294.226 306.831 C 300.675 303.012, 306.246 299.412, 306.604 298.831 C 306.963 298.251, 306.636 297.376, 305.878 296.887 C 303.414 295.298, 283.660 289.203, 277.500 288.132 C 269.512 286.743, 239.042 286.083, 231.500 287.136 M 131.005 299.494 C 130.138 300.538, 129.966 302.868, 130.433 307.244 C 130.804 310.716, 130.592 316.774, 129.957 320.856 C 128.354 331.166, 128.643 331.311, 141.786 326.775 C 155.734 321.962, 170.702 317.733, 185 314.566 C 203.643 310.437, 202.065 311.109, 198 309.028 C 196.075 308.042, 192.025 306.471, 189 305.536 L 183.500 303.835 169.664 308.918 C 162.055 311.713, 154.554 314, 152.995 314 C 150.723 314, 148.734 312.418, 142.939 306 C 135.710 297.995, 133.328 296.696, 131.005 299.494 M 365.241 305.205 C 361.953 309.229, 358.129 313.128, 356.744 313.869 C 353.855 315.415, 352.384 315.054, 332.897 308.012 L 321.294 303.820 313.595 307.025 C 309.361 308.787, 306.064 310.397, 306.268 310.601 C 306.472 310.805, 317.408 313.695, 330.570 317.022 C 343.731 320.350, 359.308 324.691, 365.184 326.669 C 377.371 330.771, 379.627 330.612, 378.489 325.735 C 378.074 323.956, 377.456 317.100, 377.117 310.500 L 376.500 298.500 373.860 298.194 C 371.641 297.937, 370.267 299.055, 365.241 305.205 M 97.154 322.004 C 89.328 327.673, 84.026 336.651, 81.631 348.290 C 79.735 357.504, 79.069 358.879, 73.638 364.797 L 69.500 369.305 75.670 368.755 C 79.063 368.452, 86.669 366.537, 92.571 364.499 C 105.045 360.191, 108.656 360.287, 116.197 365.126 C 124.267 370.305, 131.042 383.635, 129.575 391.450 C 127.627 401.834, 135.622 402.138, 156.035 392.456 C 170.347 385.667, 176.691 384.194, 185.241 385.674 C 196.415 387.608, 206.850 392.480, 224.366 403.942 C 233.546 409.949, 242.649 415.389, 244.594 416.031 C 251.155 418.196, 255.681 416.398, 271.039 405.523 C 288.317 393.288, 302.246 386.951, 316.211 384.970 C 326.016 383.579, 332.802 385.015, 347.809 391.656 C 361.942 397.911, 369.541 399.897, 373.726 398.431 C 376.418 397.489, 376.516 397.194, 377.046 388.480 C 377.691 377.891, 379.644 373.427, 386.325 367.268 C 391.281 362.700, 397.377 360.512, 402.334 361.524 C 404.075 361.879, 409.550 363.434, 414.500 364.978 C 424.490 368.095, 434 369.700, 434 368.268 C 434 367.762, 432.832 366.258, 431.405 364.924 C 427.363 361.148, 424.313 355.203, 422.030 346.646 C 418.737 334.305, 413.408 325.445, 407.003 321.661 C 404.100 319.946, 403.961 319.947, 403.377 321.689 C 399.542 333.119, 393.976 340.355, 382 349.478 C 378.425 352.202, 370.685 358.398, 364.799 363.249 C 347.982 377.108, 347.725 377.164, 330.835 370.585 C 316.387 364.957, 309.331 363.602, 297.725 364.227 C 285.885 364.865, 277.092 367.912, 264.287 375.813 C 251.138 383.926, 250.605 384.014, 242.303 379.450 C 224.532 369.679, 219.046 367.052, 213.356 365.584 C 201.348 362.488, 190.033 363.934, 171.741 370.902 C 156.264 376.797, 156.560 376.853, 143.497 365.556 C 139.645 362.225, 131.687 355.781, 125.812 351.235 C 110.786 339.608, 105.337 332.645, 103.468 322.679 C 103.088 320.655, 102.445 319, 102.039 319 C 101.632 319, 99.434 320.352, 97.154 322.004 M 104.456 401.071 C 104.092 401.660, 104.086 404.089, 104.443 406.469 C 105.276 412.022, 111.636 418.211, 125 426.472 C 148.329 440.893, 173.169 449.085, 210.500 454.670 C 225.820 456.961, 280.009 457.275, 295 455.159 C 338.961 448.954, 373.731 435.432, 395.074 416.243 C 399.822 411.975, 400 411.619, 400 406.407 C 400 403.433, 399.767 401, 399.482 401 C 399.197 401, 394.359 403.314, 388.732 406.143 C 378.524 411.273, 335.984 426.228, 320.500 430.129 C 308.913 433.048, 287.690 433.715, 273.390 431.608 C 262.583 430.017, 262.161 430.026, 257.890 431.964 C 252.522 434.400, 246.613 434.525, 239.170 432.361 C 234.168 430.907, 232.121 430.866, 221.016 431.993 C 207.090 433.408, 197.396 432.624, 182 428.841 C 169.039 425.657, 130.948 411.878, 117.736 405.595 C 111.266 402.518, 105.780 400, 105.545 400 C 105.310 400, 104.820 400.482, 104.456 401.071" stroke="none" fill="black" fill-rule="evenodd"/>
</svg>